<?xml version="1.0" encoding="utf-8"?>
<!-- Generator: Adobe Illustrator 26.0.1, SVG Export Plug-In . SVG Version: 6.00 Build 0)  -->
<svg version="1.1" id="Layer_1" xmlns="http://www.w3.org/2000/svg" xmlns:xlink="http://www.w3.org/1999/xlink" x="0px" y="0px"
	 viewBox="0 0 1080 1080" style="enable-background:new 0 0 1080 1080;" xml:space="preserve">
<style type="text/css">
	.st0{fill:#EF4136;}
	.st1{fill:#FFBB04;}
	.st2{fill:#F9ED32;}
	.st3{fill:#00A99D;}
	.st4{fill:#27AAE1;}
	.st5{fill:#0E68B4;}
	.st6{fill:#010101;}
</style>
<path class="st0" d="M801,564.7c-5.6,44.4-23.1,85.1-49.5,118.6l85,85c47.3-55.9,77.9-126.3,84.3-203.6L801,564.7L801,564.7z"/>
<path class="st1" d="M590.2,774.2v121.1c77.3-6.4,147.7-36.9,203.6-84.3l-85.2-85.2C675,751.6,634.5,768.9,590.2,774.2z"/>
<path class="st2" d="M412.7,724.5L326.2,811c55.9,47.3,126.3,77.9,203.6,84.3V773.7C486,767.9,445.9,750.5,412.7,724.5z"/>
<path class="st3" d="M322.1,564.7H199.3c6.4,77.3,36.9,147.7,84.2,203.6l86.7-86.8C344.7,648.3,327.5,608.4,322.1,564.7z"/>
<path class="st4" d="M370.3,387.4l-86.8-86.7c-47.3,55.9-77.9,126.3-84.2,203.6h122.8C327.5,460.6,344.7,420.7,370.3,387.4z"/>
<path class="st5" d="M529.8,295.3V173.7c-77.3,6.4-147.7,36.9-203.6,84.3l86.5,86.5C445.9,318.5,486,301.1,529.8,295.3z"/>
<path class="st6" d="M818,434.8l-26.4-26.5l105.8-105.8c29.2-29.2,29.2-76.6,0-105.8c-29.2-29.2-76.6-29.2-105.8,0L685.7,302.5
	L659.3,276c-14.6-14.6-38.3-14.6-52.9,0l0,0c-14.6,14.6-14.6,38.3,0,52.9l26.4,26.5L500.5,487.7c-14.6,14.6-26.9,43.2-27.4,63.9
	l-0.5,17.4l6.2,46.3l46.3,6.2l17.4-0.5c20.6-0.6,49.2-12.8,63.9-27.5l132.3-132.3l26.4,26.4c14.6,14.6,38.3,14.6,52.9,0l0,0
	C832.6,473.1,832.6,449.4,818,434.8z M579.9,567.1c-7.9,7.9-27.2,16.2-38.4,16.5l-1.3,0l-29.8-29.7l0-1.3
	c0.3-11.1,8.6-30.5,16.5-38.4l132.3-132.3l52.9,52.9L579.9,567.1z"/>
</svg>
