<?xml version="1.0" encoding="utf-8"?>
<!-- Generator: Adobe Illustrator 26.0.1, SVG Export Plug-In . SVG Version: 6.00 Build 0)  -->
<svg version="1.1" id="Layer_1" xmlns="http://www.w3.org/2000/svg" xmlns:xlink="http://www.w3.org/1999/xlink" x="0px" y="0px"
	 viewBox="0 0 1080 1080" style="enable-background:new 0 0 1080 1080;" xml:space="preserve">
<style type="text/css">
	.st0{fill:#00A99D;}
</style>
<path class="st0" d="M668.8,110H411.2c-68.8,0-124.6,55.8-124.7,124.7v610.7c0,68.8,55.8,124.6,124.7,124.7h257.6
	c68.8,0,124.6-55.8,124.7-124.7V234.7C793.4,165.8,737.6,110,668.8,110z M748.2,845.3c-0.1,43.8-35.6,79.3-79.4,79.4H411.2
	c-43.8-0.1-79.3-35.6-79.4-79.4V234.7c0.1-43.8,35.6-79.3,79.4-79.4h6.5c-10.1,19.9-2.2,44.3,17.7,54.4c5.7,2.9,12.1,4.4,18.5,4.4
	h172c22.3,0.1,40.5-18,40.6-40.3c0-6.4-1.5-12.8-4.4-18.5h6.5c43.9,0,79.5,35.5,79.6,79.4V845.3z"/>
<path class="st0" d="M660,763.5H420c-16.8,0-32,6.8-43,17.8s-17.8,26.2-17.8,43c0,33.6,27.2,60.8,60.8,60.8h240
	c16.8,0,32-6.8,43-17.8s17.8-26.2,17.8-43C720.8,790.7,693.6,763.5,660,763.5z M438.3,854.9c-16.9,0-30.7-13.7-30.7-30.7
	s13.7-30.7,30.7-30.7c16.9,0,30.7,13.7,30.7,30.7S455.3,854.9,438.3,854.9z M564,821.4v32.8h-14.3v-16.6h-19.4v16.6H516v-32.8h-10.1
	l34.1-34.1l34.1,34.1H564z M642.8,854.9c-16.9,0-30.7-13.7-30.7-30.7s13.7-30.7,30.7-30.7c16.9,0,30.7,13.7,30.7,30.7
	S659.7,854.9,642.8,854.9z"/>
</svg>
