<?xml version="1.0" encoding="utf-8"?>
<!-- Generator: Adobe Illustrator 26.0.1, SVG Export Plug-In . SVG Version: 6.00 Build 0)  -->
<svg version="1.1" id="Layer_1" xmlns="http://www.w3.org/2000/svg" xmlns:xlink="http://www.w3.org/1999/xlink" x="0px" y="0px"
	 viewBox="0 0 1080 1080" style="enable-background:new 0 0 1080 1080;" xml:space="preserve">
<style type="text/css">
	.st0{fill:#00A99D;}
</style>
<g>
	<path class="st0" d="M439.1,667.4v118.3h-41.6c-7.7,0-13.9-6.2-13.9-13.9V628.1C398.1,646.1,417.4,659.6,439.1,667.4z"/>
	<path class="st0" d="M550.1,674.7c-7.7,0-13.9-6.2-13.9-13.9V647H564v13.9C564,668.5,557.8,674.7,550.1,674.7z"/>
	<path class="st0" d="M605.6,508.2h-111v-13.9c0-7.7,6.2-13.9,13.9-13.9h83.2c7.7,0,13.9,6.2,13.9,13.9V508.2z"/>
	<path class="st0" d="M619.5,674.7c4.6,0,9.3-0.3,13.9-0.8v111.8H466.9V673.9c4.6,0.6,9.2,0.8,13.9,0.8H511
		c7.8,21.6,31.7,32.8,53.3,24.9c11.6-4.2,20.7-13.3,24.9-24.9H619.5z"/>
	<path class="st0" d="M716.6,549.8c0,53.6-43.5,97.1-97.1,97.1h-27.8v-13.9c0-7.7-6.2-13.9-13.9-13.9h-55.5
		c-7.7,0-13.9,6.2-13.9,13.9V647h-27.8c-53.7,0-97.1-43.5-97.1-97.1c0-1.8,0.4-3.6,1.1-5.3c0.7-1.7,1.8-3.3,3.2-4.6
		c1.2-1.2,2.7-2.2,4.3-2.9c1.7-0.7,3.5-1.1,5.3-1.1h305.2C710.4,536,716.6,542.2,716.6,549.8z"/>
	<path class="st0" d="M707.9,638.1c3-3,6-6.4,8.7-9.7v143.5c0,7.7-6.2,13.9-13.9,13.9h-41.6V667.5
		C678.7,661.3,694.7,651.2,707.9,638.1z"/>
	<path class="st0" d="M832.1,453.1V242H726.3v105.5l-176.2-176L151.4,569.7l49.8,49.3l31.7-31.7v289h634.3v-289l31.7,31.7l49.9-49.3
		L832.1,453.1z M744.4,771.8c0,23-18.6,41.6-41.6,41.6H397.5c-23,0-41.6-18.6-41.6-41.6v-222c0-8.3,2.4-16.3,7.1-23.2
		c3-4.4,6.7-8.2,11.1-11.2c6.9-4.7,15.1-7.2,23.5-7.2h69.4v-13.9c0-23,18.6-41.6,41.6-41.6h83.2c23,0,41.6,18.6,41.6,41.6v13.9h69.4
		c23,0,41.6,18.6,41.6,41.6V771.8z"/>
</g>
</svg>
