<?xml version="1.0" encoding="utf-8"?>
<!-- Generator: Adobe Illustrator 26.0.1, SVG Export Plug-In . SVG Version: 6.00 Build 0)  -->
<svg version="1.1" id="Layer_1" xmlns="http://www.w3.org/2000/svg" xmlns:xlink="http://www.w3.org/1999/xlink" x="0px" y="0px"
	 viewBox="0 0 1080 1080" style="enable-background:new 0 0 1080 1080;" xml:space="preserve">
<style type="text/css">
	.st0{fill:#00A99D;}
	.st1{fill:#00A99D;stroke:#FFFFFF;stroke-width:30;stroke-miterlimit:10;}
	.st2{fill:#FFFFFF;}
</style>
<g>
	<ellipse class="st0" cx="442.3" cy="466.3" rx="23.2" ry="38.6"/>
	<path class="st0" d="M574.8,272c-11-15.5-24.3-27.6-38.6-37.5c-21-14.4-44.2-22.1-67.3-22.1c-51.9,0-92.7,36.4-118.1,78.4
		c-28.7,47.5-44.2,109.3-44.2,175.5s15.5,128.1,44.2,175.5c25.4,42,66.2,78.4,118.1,78.4c23.2,0,46.4-7.7,67.3-22.1
		c14.4-9.9,26.5-22.1,38.6-37.5L681.9,622c7.7-2.2,14.4,3.3,13.2,11l-4.4,34.2H736v22.1h-47.5l-3.3,32h51.9v23.2H683l-5.5,44.2
		c-2.2,15.5,12.1,27.6,27.6,24.3l87.2-22.1c9.9-2.2,16.6-11,16.6-22.1V573.4l46.4-16.6V373.6L574.8,272z M474.4,465.2
		c0,16.6-5.5,30.9-13.2,38.6h124.7c-6.6,61.8-37.5,170-115.9,170c-64,0-118.1-96-118.1-209.8s54.1-209.8,118.1-209.8
		c77.3,0,109.3,110.4,115.9,171.1H460C468.8,435.4,474.4,448.7,474.4,465.2z M925.9,406.7c-5.5-5.5-11-9.9-18.8-14.4L867.4,378
		v173.3l39.7-14.4c27.6-16.6,42-44.2,42-72.9C949,444.3,941.3,423.3,925.9,406.7z"/>
</g>
<path class="st1" d="M394.4,557L394.4,557c8.3,15.1,26.9,21.2,42.5,13.8l0,0c23.3-11,49.5,8.1,46.2,33.6v0
	c-2.2,17.1,9.3,33,26.3,36.2h0c25.3,4.8,35.3,35.6,17.7,54.4l0,0c-11.8,12.5-11.8,32.2,0,44.7l0,0c17.7,18.7,7.7,49.6-17.7,54.4h0
	c-17,3.2-28.5,19.1-26.3,36.2v0c3.3,25.5-23,44.6-46.2,33.6l0,0c-15.6-7.4-34.3-1.3-42.5,13.8l0,0c-12.3,22.6-44.8,22.6-57.2,0l0,0
	c-8.3-15.1-26.9-21.2-42.5-13.8l0,0c-23.3,11-49.5-8.1-46.2-33.6l0,0c2.2-17.1-9.3-33-26.3-36.2h0c-25.3-4.8-35.3-35.6-17.7-54.4
	l0,0c11.8-12.5,11.8-32.2,0-44.7l0,0c-17.7-18.7-7.7-49.6,17.7-54.4h0c17-3.2,28.5-19.1,26.3-36.2l0,0c-3.3-25.5,23-44.6,46.2-33.6
	l0,0c15.6,7.4,34.3,1.3,42.5-13.8l0,0C349.6,534.3,382,534.3,394.4,557z"/>
<path class="st1" d="M336.1,243.6L336.1,243.6c5.8,10.7,19,15,30,9.8l0,0c16.4-7.8,35,5.7,32.7,23.7v0c-1.6,12.1,6.6,23.3,18.6,25.6
	h0c17.9,3.4,25,25.2,12.5,38.4l0,0c-8.4,8.9-8.4,22.7,0,31.6l0,0c12.5,13.2,5.4,35.1-12.5,38.4h0c-12,2.3-20.1,13.5-18.6,25.6v0
	c2.3,18.1-16.2,31.5-32.7,23.7l0,0c-11-5.2-24.2-0.9-30,9.8l0,0c-8.7,16-31.7,16-40.4,0l0,0c-5.8-10.7-19-15-30-9.8l0,0
	c-16.4,7.8-35-5.7-32.7-23.7v0c1.6-12.1-6.6-23.3-18.6-25.6h0c-17.9-3.4-25-25.2-12.5-38.4l0,0c8.4-8.9,8.4-22.7,0-31.6l0,0
	c-12.5-13.2-5.4-35.1,12.5-38.4h0c12-2.3,20.1-13.5,18.6-25.6v0c-2.3-18.1,16.2-31.5,32.7-23.7l0,0c11,5.2,24.2,0.9,30-9.8l0,0
	C304.4,227.7,327.4,227.7,336.1,243.6z"/>
<g>
	<path class="st2" d="M304.3,319v-10.1h11.4v9.9c12.7,1.4,21,7.5,24.9,18.1l-18.5,5.8c-1.9-5-5.8-7.5-11.6-7.5
		c-4.9,0-7.3,1.6-7.3,4.7c0,1.1,0.4,2.1,1.2,2.9c0.8,0.8,3.1,1.6,6.9,2.5c8.5,1.9,14.7,3.5,18.4,5c3.7,1.5,6.8,4,9.3,7.5
		c2.5,3.5,3.7,7.7,3.7,12.5c0,6.7-2.4,12.4-7.2,16.9c-4.8,4.5-11.4,7.3-19.8,8.2v10.2h-11.4v-10.2c-14.3-1.7-23.2-9.2-26.9-22.5
		l20.7-3.8c1.8,6.1,6.2,9.1,13.4,9.1c5.6,0,8.4-1.5,8.4-4.6c0-1.6-0.6-2.9-2-3.8c-1.3-0.9-3.6-1.7-6.9-2.4c-13-2.7-21.2-6-24.7-10.1
		c-3.5-4.1-5.2-8.8-5.2-14.1c0-5.9,1.9-11.1,5.7-15.6C290.7,323,296.5,320.2,304.3,319z"/>
</g>
<g>
	<path class="st2" d="M330,717.6c-5,0-9.4-1.2-13.3-3.5c-3.9-2.3-7.1-5.5-9.4-9.4c-2.3-3.9-3.5-8.2-3.5-13c0-4.8,1.1-9.1,3.5-13.1
		c2.3-3.9,5.4-7.1,9.4-9.4c3.9-2.3,8.4-3.5,13.3-3.5c5,0,9.4,1.2,13.3,3.5c3.9,2.3,7,5.4,9.3,9.4c2.3,3.9,3.5,8.3,3.5,13.1
		c0,4.8-1.2,9.1-3.5,13c-2.3,3.9-5.4,7-9.3,9.4C339.3,716.4,334.9,717.6,330,717.6z M314.2,766.3l79.9-98.9h20.4l-79.9,98.9H314.2z
		 M330,703c3.5,0,6.2-1.2,8-3.5c1.8-2.3,2.7-4.9,2.7-7.8c0-2.8-0.9-5.4-2.7-7.8c-1.8-2.3-4.5-3.5-8-3.5c-3.5,0-6.2,1.2-8.1,3.5
		c-1.9,2.3-2.8,4.9-2.8,7.8c0,2.8,0.9,5.4,2.8,7.8C323.7,701.8,326.4,703,330,703z M398.6,767.9c-5,0-9.4-1.2-13.3-3.5
		c-3.9-2.3-7.1-5.5-9.4-9.4c-2.3-3.9-3.5-8.2-3.5-13c0-4.8,1.1-9.1,3.5-13.1c2.3-3.9,5.4-7.1,9.4-9.4c3.9-2.3,8.4-3.5,13.3-3.5
		c5,0,9.4,1.2,13.3,3.5c3.9,2.3,7,5.4,9.3,9.4c2.3,3.9,3.5,8.3,3.5,13.1c0,4.8-1.2,9.1-3.5,13c-2.3,3.9-5.4,7-9.3,9.4
		C408,766.7,403.5,767.9,398.6,767.9z M398.6,753.3c3.5,0,6.2-1.2,8-3.5c1.8-2.3,2.7-4.9,2.7-7.8c0-2.8-0.9-5.4-2.7-7.8
		c-1.8-2.3-4.5-3.5-8-3.5c-3.5,0-6.2,1.2-8.1,3.5c-1.9,2.3-2.8,4.9-2.8,7.8c0,2.8,0.9,5.4,2.8,7.8
		C392.4,752.1,395,753.3,398.6,753.3z"/>
</g>
</svg>
