<?xml version="1.0" encoding="utf-8"?>
<!-- Generator: Adobe Illustrator 26.0.1, SVG Export Plug-In . SVG Version: 6.00 Build 0)  -->
<svg version="1.1" id="Layer_1" xmlns="http://www.w3.org/2000/svg" xmlns:xlink="http://www.w3.org/1999/xlink" x="0px" y="0px"
	 viewBox="0 0 1080 1080" style="enable-background:new 0 0 1080 1080;" xml:space="preserve">
<style type="text/css">
	.st0{fill-rule:evenodd;clip-rule:evenodd;fill:#00A99D;}
	.st1{fill:#00A99D;}
</style>
<g>
	<path class="st0" d="M699.6,317.8c-20.1-67.2-81.3-116.6-154.9-116.6c-73.6,0-136.6,49.4-157.3,116.6c-4,13-6.5,26.7-7,40.9
		c5.5-11.2,16.9-18.9,30.2-18.9h262.4c18.6,0,33.6,15,33.6,33.6v-7.7C706.6,349,704.1,332.9,699.6,317.8z M672.9,440.2H410.6
		c-13.4,0-25-7.8-30.4-19.2v21.6c0,7.9,0.6,15.6,1.7,23.1c5.1,35.7,22.1,67.5,46.8,91.6c29.8,29.2,71,47.1,116.1,47.1
		c82.4,0,149.2-59.7,160.2-138.7c1.1-7.5,1.6-15.3,1.6-23.1v-36C706.6,425.2,691.5,440.2,672.9,440.2z M868.4,747.7
		c-2.7-39.8-50.4-58.4-100.8-74.3c-42.5-13.3-90.2-45.1-106.1-55.7c-34.5,21.2-74.3,34.5-116.7,34.5c-22.6,0-43.8-3.3-63.7-9.3
		c-19.9-6-38.5-14.6-55.7-25.2c-13.3,10.6-63.7,42.4-106.1,55.7c-50.4,15.9-95.5,34.5-100.8,74.3c-5.3,42.5-5.3,127.4-5.3,127.4
		c114.1,95.5,546.6,95.5,660.7,0C873.7,875.1,873.7,790.2,868.4,747.7z"/>
</g>
<path class="st0" d="M704.1,317.8H382.7c-18.6,0-33.6,15-33.6,33.6v80.7c0,18.3,14.6,33.2,32.8,33.6c0.3,0,0.5,0,0.8,0h321.4
	c0.3,0,0.6,0,0.9,0c18.2-0.5,32.8-15.3,32.8-33.6v-80.7C737.7,332.8,722.7,317.8,704.1,317.8z M706.6,406.6
	c0,18.6-15.1,33.6-33.6,33.6H410.6c-13.4,0-25-7.8-30.4-19.2c-2.1-4.4-3.2-9.3-3.2-14.4v-33.2c0-5.3,1.2-10.3,3.4-14.7
	c5.5-11.2,16.9-18.9,30.2-18.9h262.4c18.6,0,33.6,15,33.6,33.6V406.6z"/>
<g>
	<path class="st1" d="M494.7,367.2L476,426.5h-16.7l-7.8-32.1l-8.1,32.1h-16.5l-19.1-59.3h22.8l7.8,29l7.5-29H463l7.3,29l8.2-29
		H494.7z"/>
	<path class="st1" d="M586.3,367.2l-18.8,59.3h-16.7l-7.8-32.1l-8.1,32.1h-16.5l-19.1-59.3h22.8l7.8,29l7.5-29h17.2l7.3,29l8.2-29
		H586.3z"/>
	<path class="st1" d="M677.9,367.2l-18.8,59.3h-16.7l-7.8-32.1l-8.1,32.1H610l-19.1-59.3h22.8l7.8,29l7.5-29h17.2l7.3,29l8.2-29
		H677.9z"/>
</g>
</svg>
