<?xml version="1.0" encoding="utf-8"?>
<!-- Generator: Adobe Illustrator 26.0.1, SVG Export Plug-In . SVG Version: 6.00 Build 0)  -->
<svg version="1.1" id="Layer_1" xmlns="http://www.w3.org/2000/svg" xmlns:xlink="http://www.w3.org/1999/xlink" x="0px" y="0px"
	 viewBox="0 0 1080 1080" style="enable-background:new 0 0 1080 1080;" xml:space="preserve">
<style type="text/css">
	.st0{fill:#00A99D;}
	.st1{fill:#FFFFFF;}
</style>
<path class="st0" d="M649.9,412.9l-29.4,182.4l0.5,3.1c0.9,5.7,2.4,12.5,7.3,18.9c5,6.6,11.3,9.8,14.7,11.6l2.8,1.5L750,647.1v154.7
	c0,29.5-24,53.5-53.5,53.5h-279c-29.5,0-53.5-24-53.5-53.5v-24.5c2.7,2.9,5.4,5.7,8.1,8.5l7,7.3c5.8,6.1,13.3,9.5,21.2,9.5
	c3.6,0,7.1-0.7,10.5-2.2c4.9-2.1,16.3-8.9,16.4-26.3c0-2.3,0-4.7,0.1-7c1.1,0,2.1,0,3.2,0c5.5-0.1,10.3-1,14.6-2.7
	c15.3-6.1,24.3-19.4,24.7-36.7c0.2-8.3,0.3-16.6,0.3-24.7c0-1.9,0-3.7,0-5.6c1.3,0,2.4,0,3.5-0.1c13.9-0.9,24.9-12.1,25.7-26.1
	c0.3-5.9-1-14.7-9.2-23.2c-6.3-6.5-12.5-12.9-18.8-19.4c-13.9-14.3-28.2-29.2-42.4-43.8c-2.7-2.8-6-5.2-10-7.2
	c-5.7-3-12.2-4.4-19.8-4.5l-18.7-0.2c-5.5,0-11-0.1-16.4-0.1v-54.5c8.5-0.4,15.9-3.9,20.9-9.9c4.2-5,6.3-11.2,6.2-17.9
	c5.3,6,12.5,9.3,20.4,9.3c7,0,13.8-2.8,19.4-7.8c17.3-15.7,28.6-35.1,33.4-57.6c1.9-8.9,0.2-17.4-4.8-23.9c-2.3-3.1-5.3-5.6-8.8-7.4
	c6.8-4.9,11.1-12.5,11.5-21.3l0.2-3.6l-1.1-3.4c-0.1-0.2-0.1-0.4-0.2-0.6c-0.3-1.2-0.9-3-1.8-5.1c-9.6-21.7-24.9-38.6-45.6-50.3
	c-4.5-2.6-9.5-3.9-14.4-3.9c-10.9,0-20.3,6.3-24.9,16.5c-0.8-10.3-1.5-20.7-2.3-31c-0.6-7.5-3.6-13.9-8.3-18.6v-51.9
	c0-29.5,24-53.5,53.5-53.5h279c29.5,0,53.5,24,53.5,53.5v168.4l-65.1-10.5l-3.1,0.5c-3.8,0.6-11.6,1.8-18.9,7.3
	c-5.8,4.4-9,9.7-11.6,14.7L649.9,412.9z"/>
<g>
	<g>
		<path class="st0" d="M358.2,382.5c0.1,3.1-1.6,5.9-4.6,7.2c-2.9,1.2-6,0.4-8.6-2.4c-17.6-19.5-35.3-38.9-52.9-58.4
			c-4.1-4.5-3.7-8.6,0.8-12.7c10.3-9.2,22.1-15.9,35.5-19.4c4.9-1.3,10-2.1,15-2.8c5.2-0.7,8.4,2.5,8.8,7.7
			c1.6,22.4,3.3,44.9,5,67.3C357.6,373.4,357.9,377.7,358.2,382.5z"/>
		<path class="st0" d="M358.9,498.4c-17.7-0.8-33.7-6.4-48.1-16.8c-4.9-3.5-5.5-8.2-1.4-12.7c12.5-13.8,25-27.6,37.4-41.3
			c2.2-2.4,4.8-3.8,8.1-2.8c3.2,0.9,4.7,3.4,5.3,6.5c3.6,19,7.2,38,10.7,57c1.2,6.2-2.2,10.1-8.5,10.1
			C361.3,498.4,360.1,498.4,358.9,498.4z"/>
		<path class="st0" d="M379.2,415.8c14.6,1,28,1.9,41.5,2.8c5.3,0.4,10.6,0.8,15.9,1.1c6.6,0.3,9.6,4.2,8.2,10.6
			c-4,18.6-13.2,34.2-27.3,47c-4.3,3.9-9.3,3.4-12.5-1.4c-10.5-16-20.9-32.1-31.3-48.1c-1.7-2.6-2.2-5.4-0.5-8.2
			C374.8,416.7,377.3,415.7,379.2,415.8z"/>
		<path class="st0" d="M442.4,380.8c-0.2,3.8-2.5,6.6-6.7,7.7c-7.6,2-15.2,3.9-22.9,5.8c-11.1,2.8-22.1,5.7-33.2,8.4
			c-4.4,1.1-8.3-1-9.2-5.2c-0.3-1.6-0.1-3.5,0.5-4.9c7.1-17.6,14.4-35.1,21.7-52.7c2-4.9,6.8-6.4,11.4-3.7
			c16.9,9.6,29.3,23.3,37.2,41C441.7,378.3,442,379.6,442.4,380.8z"/>
		<path class="st0" d="M274.2,412.5c-0.1-10.9,2-21.4,5.9-31.6c2-5.2,6.7-7,11.5-4.2c15.9,9.2,31.8,18.4,47.6,27.6
			c2.7,1.5,4.2,3.8,4.1,7c-0.2,3-1.8,5.1-4.5,6.4c-16.8,7.9-33.5,15.9-50.3,23.8c-4.8,2.2-9.4,0-10.8-5.1
			C275.4,428.6,274.1,420.6,274.2,412.5z"/>
	</g>
</g>
<g>
	<path class="st1" d="M645.7,630.3l-2.8-1.5c-3.4-1.7-9.7-5-14.7-11.6c-4.9-6.5-6.4-13.2-7.3-18.9l-0.5-3.1l29.4-182.4l1.4-2.8
		c2.6-5,5.8-10.3,11.6-14.7c7.3-5.5,15.1-6.7,18.9-7.3l3.1-0.5l182.4,29.4l2.8,1.5c3.4,1.7,9.7,5,14.7,11.6c5,6.6,6.5,13.7,7.3,19.1
		l0.4,3l-29.4,182.3l-1.5,2.8c-1.7,3.4-5,9.7-11.6,14.7c-6.7,5-13.7,6.5-19.1,7.3l-3,0.4L645.7,630.3z M730.5,537.1
		c-6.3,1.4-10.9,4.7-14.6,10.3c-3.6,5.4-3,9-2,11.8c0.8,2.2,2.6,3.8,4.3,3.8l0.1,0c2-0.1,2.9-0.2,4.2-3.1c1.6-3.4,3-7.5,4.4-11.7
		c0.5-1.3,0.9-2.7,1.4-4C729.1,542,729.7,539.6,730.5,537.1z M762.1,522c0.5,0.3,1,0.6,1.4,0.9c0.8,0.5,1.8,1.1,2.8,1.8l0-28.3
		c-2.7,8.1-5.2,15.8-7.7,23.2L762.1,522z"/>
	<path class="st1" d="M640.7,595.4c9.5-58.7,18.9-117.4,28.4-176.2c1.5-3,3.1-5.8,5.9-7.9c2.9-2.2,6.3-2.9,9.8-3.4
		c58.7,9.5,117.4,18.9,176.2,28.4c2.9,1.5,5.8,3.1,7.9,5.9c2.2,2.9,2.9,6.3,3.4,9.8c-9.5,58.7-18.9,117.4-28.4,176.2
		c-1.5,3-3.1,5.8-5.9,7.9c-2.9,2.2-6.3,2.9-9.8,3.4c-58.7-9.5-117.4-18.9-176.2-28.4c-2.9-1.5-5.8-3.1-7.9-5.9
		C641.9,602.3,641.2,598.9,640.7,595.4z M786.3,581.5c0-39.7,0-79.1-0.1-118.7c-9.3-1.5-18.3-3-27.4-4.4c-0.4-0.1-1.3,0.6-1.4,1.1
		c-6.1,18.3-12.2,36.5-18.2,54.8c-0.5,1.5-1.1,1.9-2.7,2c-15.9,0.4-28.7,6.7-37.4,20.1c-5.9,9-7.9,19-4.1,29.5
		c3.8,10.6,13.6,17.4,24.1,17c10.2-0.4,17.3-5.6,21.5-14.6c2.6-5.7,4.5-11.7,6.5-17.7c1.3-3.8,2.4-7.7,3.7-12c2,1.4,3.9,2.4,5.5,3.8
		c6.2,5.4,9,12.6,9.9,20.5c0.5,4.6,0.2,9.2,0.4,13.8c0,0.6,0.5,1.7,0.9,1.8C773.7,579.5,779.8,580.5,786.3,581.5z"/>
</g>
<g>
	<path class="st0" d="M640.7,595.4c9.5-58.7,18.9-117.4,28.4-176.2c1.5-3,3.1-5.8,5.9-7.9c2.9-2.2,6.3-2.9,9.8-3.4
		c58.7,9.5,117.4,18.9,176.2,28.4c2.9,1.5,5.8,3.1,7.9,5.9c2.2,2.9,2.9,6.3,3.4,9.8c-9.5,58.7-18.9,117.4-28.4,176.2
		c-1.5,3-3.1,5.8-5.9,7.9c-2.9,2.2-6.3,2.9-9.8,3.4c-58.7-9.5-117.4-18.9-176.2-28.4c-2.9-1.5-5.8-3.1-7.9-5.9
		C641.9,602.3,641.2,598.9,640.7,595.4z M786.3,581.5c0-39.7,0-79.1-0.1-118.7c-9.3-1.5-18.3-3-27.4-4.4c-0.4-0.1-1.3,0.6-1.4,1.1
		c-6.1,18.3-12.2,36.5-18.2,54.8c-0.5,1.5-1.1,1.9-2.7,2c-15.9,0.4-28.7,6.7-37.4,20.1c-5.9,9-7.9,19-4.1,29.5
		c3.8,10.6,13.6,17.4,24.1,17c10.2-0.4,17.3-5.6,21.5-14.6c2.6-5.7,4.5-11.7,6.5-17.7c1.3-3.8,2.4-7.7,3.7-12c2,1.4,3.9,2.4,5.5,3.8
		c6.2,5.4,9,12.6,9.9,20.5c0.5,4.6,0.2,9.2,0.4,13.8c0,0.6,0.5,1.7,0.9,1.8C773.7,579.5,779.8,580.5,786.3,581.5z"/>
	<path class="st0" d="M640.7,595.4c9.5-58.7,18.9-117.4,28.4-176.2c1.5-3,3.1-5.8,5.9-7.9c2.9-2.2,6.3-2.9,9.8-3.4
		c58.7,9.5,117.4,18.9,176.2,28.4c2.9,1.5,5.8,3.1,7.9,5.9c2.2,2.9,2.9,6.3,3.4,9.8c-9.5,58.7-18.9,117.4-28.4,176.2
		c-1.5,3-3.1,5.8-5.9,7.9c-2.9,2.2-6.3,2.9-9.8,3.4c-58.7-9.5-117.4-18.9-176.2-28.4c-2.9-1.5-5.8-3.1-7.9-5.9
		C641.9,602.3,641.2,598.9,640.7,595.4z M786.3,581.5c0-39.7,0-79.1-0.1-118.7c-9.3-1.5-18.3-3-27.4-4.4c-0.4-0.1-1.3,0.6-1.4,1.1
		c-6.1,18.3-12.2,36.5-18.2,54.8c-0.5,1.5-1.1,1.9-2.7,2c-15.9,0.4-28.7,6.7-37.4,20.1c-5.9,9-7.9,19-4.1,29.5
		c3.8,10.6,13.6,17.4,24.1,17c10.2-0.4,17.3-5.6,21.5-14.6c2.6-5.7,4.5-11.7,6.5-17.7c1.3-3.8,2.4-7.7,3.7-12c2,1.4,3.9,2.4,5.5,3.8
		c6.2,5.4,9,12.6,9.9,20.5c0.5,4.6,0.2,9.2,0.4,13.8c0,0.6,0.5,1.7,0.9,1.8C773.7,579.5,779.8,580.5,786.3,581.5z"/>
	<path class="st0" d="M732.2,535.8c-2.7,7.8-5.2,15.3-7.9,22.7c-0.4,1.2-1.1,2.3-1.9,3.3c-2.5,3.2-6.4,3-8.6-0.5
		c-2.2-3.5-1.8-7.2-0.6-10.8C715.9,543,723.7,537,732.2,535.8z"/>
	<path class="st0" d="M768,527.1c-3.9-2.3-7.6-4.5-11.5-6.8c4.1-13.6,8.2-27.4,12.3-41.2c0.2,0,0.4,0,0.6,0.1
		C768.9,495.1,768.4,511.1,768,527.1z"/>
</g>
<g>
	<path class="st0" d="M450.1,691.4c0,0.6,0.1,0.9,0.1,1.3c-0.1,11.5-0.1,23-0.4,34.5c-0.2,8.6-3.8,15.3-12.1,18.6
		c-2.3,0.9-5,1.2-7.5,1.3c-6.9,0.1-13.7-0.1-20.6-0.1c-0.6,0-1.2,0-2.1,0c0,0.8,0,1.5,0,2.2c-0.1,8.3-0.2,16.6-0.2,24.9
		c0,3.5-0.8,6.5-4.3,8c-2.9,1.3-6.5,0.2-9.3-2.7c-9.3-9.7-18.6-19.4-27.8-29.2c-2.3-2.4-4.8-3.6-8.2-3.6c-19.8,0-39.7-0.4-59.5-0.4
		c-10.8,0-18.8-8.1-20-17.2c-0.5-3.6-0.3-7.3-0.3-11c0-10.1,0.3-20.1,0.1-30.2c-0.1-6.7,2.1-12.1,7-16.8
		c14-13.6,27.8-27.5,41.7-41.3c4.9-4.8,9.6-4.8,14.4,0.1c17.7,18.1,35.5,36.2,53.2,54.3c4.5,4.7,9.8,7,16.3,7
		c12.4,0,24.8,0.2,37.2,0.4C448.4,691.4,449.2,691.4,450.1,691.4z"/>
	<path class="st0" d="M440.2,677.2c-9.9-0.1-19.8-0.2-29.7-0.2c-3,0-5.3-1-7.4-3.2c-17.5-18-35.1-35.9-52.6-53.9
		c-3.9-4-8.3-7-14-7.6c-7.6-0.8-13.9,2-19.2,7.2c-17.2,16.8-34.2,33.7-51.4,50.6c-1.2,1.2-2.4,2.4-3.8,3.4
		c-3.9,2.9-8.3,2.5-11.3-0.8c-2.9-3.3-2.6-7.8,0.9-11.2c7.1-7,14.2-14,21.3-20.9c13.8-13.6,27.6-27.1,41.4-40.7
		c5-4.9,11-7.3,17.9-7.3c22.2,0.2,44.4,0.4,66.6,0.6c3.8,0,7.5,0.5,10.8,2.3c1.7,0.9,3.5,2,4.9,3.4c20.4,21,40.7,42.1,61.1,63.1
		c2.2,2.3,3.8,4.9,3.6,8.2c-0.2,3.8-3.1,7-7,7.2c-2.2,0.1-4.3,0-6.5,0C457.3,677.4,448.8,677.3,440.2,677.2
		C440.2,677.2,440.2,677.2,440.2,677.2z"/>
</g>
<circle class="st1" cx="551.7" cy="782.5" r="34.2"/>
</svg>
