<?xml version="1.0" encoding="utf-8"?>
<!-- Generator: Adobe Illustrator 26.0.1, SVG Export Plug-In . SVG Version: 6.00 Build 0)  -->
<svg version="1.1" id="Layer_1" xmlns="http://www.w3.org/2000/svg" xmlns:xlink="http://www.w3.org/1999/xlink" x="0px" y="0px"
	 viewBox="0 0 1080 1080" style="enable-background:new 0 0 1080 1080;" xml:space="preserve">
<style type="text/css">
	.st0{fill:#00A99D;}
</style>
<g>
	<path class="st0" d="M757.4,752.3h-458c-23.8,0-43.2-19.4-43.2-43.2V415c0-23.8,19.4-43.2,43.2-43.2h329.4c5.5,0,10,4.5,10,10
		s-4.5,10-10,10H299.4c-12.8,0-23.2,10.4-23.2,23.2v294.1c0,12.8,10.4,23.2,23.2,23.2h458c12.8,0,23.2-10.4,23.2-23.2V521.7
		c0-5.5,4.5-10,10-10s10,4.5,10,10v187.4C800.6,732.9,781.2,752.3,757.4,752.3z"/>
</g>
<g>
	<path class="st0" d="M624.9,458.2H266.2c-5.5,0-10-4.5-10-10s4.5-10,10-10h358.7c5.5,0,10,4.5,10,10S630.5,458.2,624.9,458.2z"/>
</g>
<g>
	<rect x="266.2" y="684.2" class="st0" width="524.4" height="10"/>
</g>
<g>
	<path class="st0" d="M524.3,656.8H328.3c-15.7,0-28.4-12.7-28.4-28.4V509c0-15.7,12.7-28.4,28.4-28.4h196.1
		c15.7,0,28.4,12.7,28.4,28.4v119.5C552.7,644.1,540,656.8,524.3,656.8z M328.3,500.6c-4.6,0-8.4,3.8-8.4,8.4v119.5
		c0,4.6,3.8,8.4,8.4,8.4h196.1c4.6,0,8.4-3.8,8.4-8.4V509c0-4.6-3.8-8.4-8.4-8.4H328.3z"/>
</g>
<g>
	<path class="st0" d="M681.1,514.4h-86.8c-5.5,0-10-4.5-10-10s4.5-10,10-10h86.8c5.5,0,10,4.5,10,10S686.6,514.4,681.1,514.4z"/>
</g>
<g>
	<path class="st0" d="M626.8,425.3H579c-5.5,0-10-4.5-10-10s4.5-10,10-10h47.8c5.5,0,10,4.5,10,10S632.3,425.3,626.8,425.3z"/>
</g>
<g>
	<path class="st0" d="M718.4,555.2H594.3c-5.5,0-10-4.5-10-10c0-5.5,4.5-10,10-10h124.1c5.5,0,10,4.5,10,10
		C728.4,550.7,723.9,555.2,718.4,555.2z"/>
</g>
<g>
	<path class="st0" d="M718.4,596.1H594.3c-5.5,0-10-4.5-10-10s4.5-10,10-10h124.1c5.5,0,10,4.5,10,10S723.9,596.1,718.4,596.1z"/>
</g>
<g>
	<path class="st0" d="M668.3,636.9h-74c-5.5,0-10-4.5-10-10s4.5-10,10-10h74c5.5,0,10,4.5,10,10S673.9,636.9,668.3,636.9z"/>
</g>
<g>
	<circle class="st0" cx="318.1" cy="415.5" r="8.3"/>
</g>
<g>
	<circle class="st0" cx="350.6" cy="415.5" r="8.3"/>
</g>
<g>
	<circle class="st0" cx="382.5" cy="415.3" r="8.3"/>
</g>
<g>
	<path class="st0" d="M802.4,408.1c0,16-13,29.1-29.1,29.1c-16,0-29.1-13-29.1-29.1c0-16,13-29.1,29.1-29.1
		C789.3,379.1,802.4,392.1,802.4,408.1z"/>
</g>
<g>
	<path class="st0" d="M773.3,350.5c-40.5,0-75.6,23.5-92.2,57.7c16.6,34.2,51.6,57.7,92.2,57.7c40.5,0,75.6-23.5,92.2-57.7
		C848.9,374,813.8,350.5,773.3,350.5z M773.3,452.7c-24.6,0-44.5-20-44.5-44.5s20-44.5,44.5-44.5c24.5,0,44.5,20,44.5,44.5
		S797.8,452.7,773.3,452.7z"/>
</g>
</svg>
