<?xml version="1.0" encoding="utf-8"?>
<!-- Generator: Adobe Illustrator 26.0.1, SVG Export Plug-In . SVG Version: 6.00 Build 0)  -->
<svg version="1.1" id="Layer_1" xmlns="http://www.w3.org/2000/svg" xmlns:xlink="http://www.w3.org/1999/xlink" x="0px" y="0px"
	 viewBox="0 0 1080 1080" style="enable-background:new 0 0 1080 1080;" xml:space="preserve">
<style type="text/css">
	.st0{fill:none;stroke:#00A99D;stroke-width:40;stroke-miterlimit:10;}
	.st1{fill:#00A99D;}
</style>
<path class="st0" d="M822,932.1H258c-68.3,0-123.6-55.3-123.6-123.6v-564c0-68.3,55.3-123.6,123.6-123.6h564
	c68.3,0,123.6,55.3,123.6,123.6v564C945.6,876.7,890.3,932.1,822,932.1z"/>
<path class="st1" d="M499.1,406.7H269.1c-13.5,0-24.5-11-24.5-24.5V251.9c0-13.5,11-24.5,24.5-24.5h230.1c13.5,0,24.5,11,24.5,24.5
	v130.3C523.6,395.7,512.7,406.7,499.1,406.7z"/>
<path class="st1" d="M499.1,618.2H269.1c-13.5,0-24.5-11-24.5-24.5V463.5c0-13.5,11-24.5,24.5-24.5h230.1c13.5,0,24.5,11,24.5,24.5
	v130.3C523.6,607.2,512.7,618.2,499.1,618.2z"/>
<path class="st1" d="M499.1,825.4H269.1c-13.5,0-24.5-11-24.5-24.5V670.7c0-13.5,11-24.5,24.5-24.5h230.1c13.5,0,24.5,11,24.5,24.5
	v130.3C523.6,814.5,512.7,825.4,499.1,825.4z"/>
<path class="st1" d="M810.9,406.7H580.9c-13.5,0-24.5-11-24.5-24.5V251.9c0-13.5,11-24.5,24.5-24.5h230.1c13.5,0,24.5,11,24.5,24.5
	v130.3C835.5,395.7,824.5,406.7,810.9,406.7z"/>
<path class="st1" d="M810.9,616.1H580.9c-13.5,0-24.5-11-24.5-24.5V461.3c0-13.5,11-24.5,24.5-24.5h230.1c13.5,0,24.5,11,24.5,24.5
	v130.3C835.5,605.1,824.5,616.1,810.9,616.1z"/>
<path class="st1" d="M810.9,825.4H580.9c-13.5,0-24.5-11-24.5-24.5V670.7c0-13.5,11-24.5,24.5-24.5h230.1c13.5,0,24.5,11,24.5,24.5
	v130.3C835.5,814.5,824.5,825.4,810.9,825.4z"/>
</svg>
