<?xml version="1.0" encoding="utf-8"?>
<!-- Generator: Adobe Illustrator 26.0.1, SVG Export Plug-In . SVG Version: 6.00 Build 0)  -->
<svg version="1.1" id="Layer_1" xmlns="http://www.w3.org/2000/svg" xmlns:xlink="http://www.w3.org/1999/xlink" x="0px" y="0px"
	 viewBox="0 0 1080 1080" style="enable-background:new 0 0 1080 1080;" xml:space="preserve">
<style type="text/css">
	.st0{fill:#00AA9C;}
	.st1{fill:#216AB4;}
</style>
<path class="st0" d="M767.7,202.5c-86.3,0-156.2,70-156.2,156.2S681.4,515,767.7,515s156.2-70,156.2-156.2S854,202.5,767.7,202.5z
	 M767.7,437.5c-43.5,0-78.8-35.3-78.8-78.8s35.3-78.8,78.8-78.8s78.8,35.3,78.8,78.8S811.2,437.5,767.7,437.5z"/>
<g>
	<path class="st0" d="M752.7,252.5c58.6,0,106.2,47.7,106.2,106.3S811.2,465,752.7,465H328.9c-58.6,0-106.2-47.7-106.2-106.3
		s47.7-106.2,106.2-106.2L752.7,252.5 M752.7,202.5H328.9c-86.3,0-156.2,70-156.2,156.2l0,0c0,86.3,70,156.2,156.2,156.2h423.8
		c86.3,0,156.2-70,156.2-156.2l0,0C908.9,272.5,839,202.5,752.7,202.5L752.7,202.5z"/>
</g>
<path class="st1" d="M312.3,565c-86.3,0-156.2,70-156.2,156.2s70,156.2,156.2,156.2c86.3,0,156.2-70,156.2-156.2
	S398.6,565,312.3,565z M312.3,800c-43.5,0-78.8-35.3-78.8-78.8s35.3-78.8,78.8-78.8s78.8,35.3,78.8,78.8S355.8,800,312.3,800z"/>
<g>
	<path class="st1" d="M751.1,615c58.6,0,106.2,47.7,106.2,106.3s-47.7,106.2-106.2,106.2H327.3c-58.6,0-106.2-47.7-106.2-106.3
		S268.8,615,327.3,615H751.1 M751.1,565H327.3c-86.3,0-156.2,70-156.2,156.2l0,0c0,86.3,70,156.2,156.2,156.2h423.8
		c86.3,0,156.2-70,156.2-156.2l0,0C907.3,635,837.4,565,751.1,565L751.1,565z"/>
</g>
</svg>
