<?xml version="1.0" encoding="utf-8"?>
<!-- Generator: Adobe Illustrator 26.0.1, SVG Export Plug-In . SVG Version: 6.00 Build 0)  -->
<svg version="1.1" id="Layer_1" xmlns="http://www.w3.org/2000/svg" xmlns:xlink="http://www.w3.org/1999/xlink" x="0px" y="0px"
	 viewBox="0 0 1080 1080" style="enable-background:new 0 0 1080 1080;" xml:space="preserve">
<style type="text/css">
	.st0{fill:#00A99D;}
</style>
<g>
	<path class="st0" d="M790,532.9l-46-46L744,487L532.2,698.7c-20.5,20.5-47.7,31.8-76.7,31.8c-29,0-56.2-11.3-76.7-31.8
		c-42.3-42.3-42.3-111.1,0-153.4l211.2-211.2l-46-46l-46-46L287,453.5c-45,45-69.8,104.9-69.8,168.6s24.8,123.6,69.8,168.6
		c45,45,104.9,69.8,168.6,69.8s123.6-24.8,168.6-69.8L836,578.8L790,532.9z M499,261.8l35.8,35.8l34.9,34.9l-77,77L422,338.8
		L499,261.8z M336.9,492.3c-67.1,46.9-83.6,139.8-36.7,206.9c3.2,4.5,2.1,10.8-2.5,13.9c-1.8,1.2-3.8,1.8-5.7,1.8
		c-3.2,0-6.3-1.5-8.2-4.3c-53.3-76.2-34.6-181.5,41.6-234.8c4.5-3.2,10.8-2.1,13.9,2.5C342.6,482.9,341.5,489.1,336.9,492.3z
		 M667.7,584.5l77-77l70.7,70.7l-77,77L667.7,584.5z"/>
</g>
<polygon class="st0" points="624.5,182.5 583.1,223.9 612,252.8 "/>
<polygon class="st0" points="556.1,279.8 597.5,238.4 568.6,209.5 "/>
<polygon class="st0" points="871.8,429.8 830.4,471.2 859.3,500.2 "/>
<polygon class="st0" points="803.4,527.1 844.8,485.7 815.9,456.8 "/>
</svg>
