<?xml version="1.0" encoding="utf-8"?>
<!-- Generator: Adobe Illustrator 26.0.1, SVG Export Plug-In . SVG Version: 6.00 Build 0)  -->
<svg version="1.1" id="Layer_1" xmlns="http://www.w3.org/2000/svg" xmlns:xlink="http://www.w3.org/1999/xlink" x="0px" y="0px"
	 viewBox="0 0 1080 1080" style="enable-background:new 0 0 1080 1080;" xml:space="preserve">
<style type="text/css">
	.st0{fill:none;}
	.st1{fill:#00A99D;}
</style>
<g>
	
		<rect x="193.3" y="689.1" transform="matrix(-1 -2.787000e-15 2.787000e-15 -1 1112 1580.8988)" class="st0" width="725.3" height="202.7"/>
	<path class="st1" d="M168.3,664.1h775.3v252.7H168.3V664.1z M893.7,714.1H218.3v152.7h675.3V714.1z"/>
</g>
<path class="st1" d="M211.3,642.7v-43h-43v43H211.3z M211.3,556.7v-43h-43v43H211.3z M211.3,470.7v-43h-43v43H211.3z M211.3,384.7
	v-43h-43v43H211.3z M211.3,298.7v-43h-43v43H211.3z M211.3,237.3v-43h-43v43H211.3z M279,237.3v-43h-43v43H279z M365,237.3v-43h-43
	v43H365z M451,237.3v-43h-43v43H451z M537,237.3v-43h-43v43H537z M623,237.3v-43h-43v43H623z M709,237.3v-43h-43v43H709z M795,237.3
	v-43h-43v43H795z M881,237.3v-43h-43v43H881z M943.7,237.3v-43h-43v43H943.7z M943.7,303.7v-43h-43v43H943.7z M943.7,389.7v-43h-43
	v43H943.7z M943.7,475.7v-43h-43v43H943.7z M943.7,561.7v-43h-43v43H943.7z M943.7,647.7v-43h-43v43H943.7z"/>
</svg>
