<?xml version="1.0" encoding="utf-8"?>
<!-- Generator: Adobe Illustrator 26.0.1, SVG Export Plug-In . SVG Version: 6.00 Build 0)  -->
<svg version="1.1" id="Layer_1" xmlns="http://www.w3.org/2000/svg" xmlns:xlink="http://www.w3.org/1999/xlink" x="0px" y="0px"
	 viewBox="0 0 1080 1080" style="enable-background:new 0 0 1080 1080;" xml:space="preserve">
<style type="text/css">
	.st0{fill:#FFFFFF;}
	.st1{fill:#00A99D;}
</style>
<g>
	<rect x="177.3" y="241.9" class="st0" width="725.3" height="202.7"/>
	<path class="st1" d="M927.7,469.6H152.3V216.9h775.3V469.6z M202.3,419.6h675.3V266.9H202.3V419.6z"/>
</g>
<path class="st1" d="M-288,646.9l-29.4,182.4l0.5,3.1c0.9,5.7,2.4,12.5,7.3,18.9c5,6.6,11.3,9.8,14.7,11.6l2.8,1.5l104.3,16.8v154.7
	c0,29.5-24,53.5-53.5,53.5h-279c-29.5,0-53.5-24-53.5-53.5v-24.5c2.7,2.9,5.4,5.7,8.1,8.5l7,7.3c5.8,6.1,13.3,9.5,21.2,9.5
	c3.6,0,7.1-0.7,10.5-2.2c4.9-2.1,16.3-8.9,16.4-26.3c0-2.3,0-4.7,0.1-7c1.1,0,2.1,0,3.2,0c5.5-0.1,10.3-1,14.6-2.7
	c15.3-6.1,24.3-19.4,24.7-36.7c0.2-8.3,0.3-16.6,0.3-24.7c0-1.9,0-3.7,0-5.6c1.3,0,2.4,0,3.5-0.1c13.9-0.9,24.9-12.1,25.7-26.1
	c0.3-5.9-1-14.7-9.2-23.2c-6.3-6.5-12.5-12.9-18.8-19.4c-13.9-14.3-28.2-29.2-42.4-43.8c-2.7-2.8-6.1-5.2-10-7.2
	c-5.7-3-12.2-4.4-19.8-4.5l-18.7-0.2c-5.5,0-11-0.1-16.4-0.1v-54.5c8.5-0.4,15.9-3.9,20.9-9.9c4.2-5,6.3-11.2,6.2-17.9
	c5.3,6,12.5,9.3,20.4,9.3c7,0,13.8-2.8,19.4-7.8c17.3-15.7,28.6-35.1,33.4-57.6c1.9-8.9,0.2-17.4-4.8-23.9c-2.3-3.1-5.3-5.6-8.8-7.4
	c6.8-4.9,11.1-12.5,11.5-21.3l0.2-3.6l-1.1-3.4c-0.1-0.2-0.1-0.4-0.2-0.6c-0.3-1.2-0.9-3-1.8-5.1c-9.6-21.7-24.9-38.6-45.6-50.3
	c-4.5-2.6-9.5-3.9-14.4-3.9c-10.9,0-20.3,6.3-24.9,16.5c-0.8-10.3-1.5-20.7-2.3-31c-0.6-7.5-3.6-13.9-8.3-18.6v-51.9
	c0-29.5,24-53.5,53.5-53.5h279c29.5,0,53.5,24,53.5,53.5v168.4l-65.1-10.5l-3.1,0.5c-3.8,0.6-11.6,1.8-18.9,7.3
	c-5.8,4.4-9,9.7-11.6,14.7L-288,646.9z"/>
<rect x="245.8" y="319.8" class="st1" width="116.4" height="65.8"/>
<rect x="434.2" y="319.8" class="st1" width="391.1" height="65.8"/>
<path class="st1" d="M884.7,491v43h43v-43H884.7z M884.7,577v43h43v-43H884.7z M884.7,663v43h43v-43H884.7z M884.7,749v43h43v-43
	H884.7z M884.7,835v43h43v-43H884.7z M884.7,896.3v43h43v-43H884.7z M817,896.3v43h43v-43H817z M731,896.3v43h43v-43H731z
	 M645,896.3v43h43v-43H645z M559,896.3v43h43v-43H559z M473,896.3v43h43v-43H473z M387,896.3v43h43v-43H387z M301,896.3v43h43v-43
	H301z M215,896.3v43h43v-43H215z M152.3,896.3v43h43v-43H152.3z M152.3,830v43h43v-43H152.3z M152.3,744v43h43v-43H152.3z
	 M152.3,658v43h43v-43H152.3z M152.3,572v43h43v-43H152.3z M152.3,486v43h43v-43H152.3z"/>
</svg>
