<?xml version="1.0" encoding="utf-8"?>
<!-- Generator: Adobe Illustrator 26.0.1, SVG Export Plug-In . SVG Version: 6.00 Build 0)  -->
<svg version="1.1" id="Layer_1" xmlns="http://www.w3.org/2000/svg" xmlns:xlink="http://www.w3.org/1999/xlink" x="0px" y="0px"
	 viewBox="0 0 1080 1080" style="enable-background:new 0 0 1080 1080;" xml:space="preserve">
<style type="text/css">
	.st0{fill:#00A99D;}
	.st1{fill:#FFFFFF;}
</style>
<path class="st0" d="M858.1,949.6H221.9c-38.7,0-70-31.3-70-70V243.4c0-38.7,31.3-70,70-70h636.2c38.7,0,70,31.3,70,70v636.2
	C928.1,918.3,896.8,949.6,858.1,949.6z"/>
<path class="st1" d="M788.1,455.9H291.9c-22.8,0-41.2-18.5-41.2-41.2v0c0-22.8,18.5-41.2,41.2-41.2h496.3
	c22.8,0,41.2,18.5,41.2,41.2v0C829.4,437.4,810.9,455.9,788.1,455.9z"/>
<path class="st1" d="M788.1,610.9H291.9c-22.8,0-41.2-18.5-41.2-41.2v0c0-22.8,18.5-41.2,41.2-41.2h496.3
	c22.8,0,41.2,18.5,41.2,41.2v0C829.4,592.4,810.9,610.9,788.1,610.9z"/>
<path class="st1" d="M788.1,765.9H291.9c-22.8,0-41.2-18.5-41.2-41.2v0c0-22.8,18.5-41.2,41.2-41.2h496.3
	c22.8,0,41.2,18.5,41.2,41.2v0C829.4,747.4,810.9,765.9,788.1,765.9z"/>
</svg>
