<?xml version="1.0" encoding="utf-8"?>
<!-- Generator: Adobe Illustrator 26.0.1, SVG Export Plug-In . SVG Version: 6.00 Build 0)  -->
<svg version="1.1" id="Layer_1" xmlns="http://www.w3.org/2000/svg" xmlns:xlink="http://www.w3.org/1999/xlink" x="0px" y="0px"
	 viewBox="0 0 1080 1080" style="enable-background:new 0 0 1080 1080;" xml:space="preserve">
<style type="text/css">
	.st0{fill:#00A99D;}
</style>
<g>
	<path class="st0" d="M930.9,805.4c-9.5-9.5-22.6-15.4-37.1-15.4H341c11.9,14.2,19.1,32.5,19.1,52.5c0,19.9-7.2,38.2-19.1,52.4
		h552.9c14.5,0,27.6-5.9,37.1-15.4c9.5-9.5,15.4-22.7,15.4-37C946.3,828,940.4,814.9,930.9,805.4z M811.9,760.5V221.9
		c0-28.3-23-51.3-51.3-51.3H277c-28.3,0-51.3,23-51.3,51.3v620.5c0,14.4,5.9,27.5,15.4,37c9.5,9.5,22.6,15.4,37.4,15.4
		c14.5-0.2,27.4-6.1,36.7-15.4c9.5-9.5,15.4-22.7,15.4-37c0-14.4-5.9-27.5-15.4-37c-9.5-9.5-22.6-15.4-37-15.4v-29.5H811.9z
		 M319.6,280.9c3.3-3.3,7.8-5.3,12.7-5.3H711c9.9,0,18,8.1,18,18c0,5-2,9.5-5.3,12.7c-3.3,3.3-7.8,5.3-12.7,5.3H332.3
		c-9.9,0-18-8.1-18-18C314.3,288.7,316.3,284.2,319.6,280.9z M319.6,359.2c3.3-3.3,7.8-5.3,12.7-5.3H711c9.9,0,18,8.1,18,18
		c0,5-2,9.5-5.3,12.7c-3.3,3.3-7.8,5.3-12.7,5.3H332.3c-9.9,0-18-8.1-18-18C314.3,366.9,316.3,362.4,319.6,359.2z M319.6,437.4
		c3.3-3.3,7.8-5.3,12.7-5.3H711c9.9,0,18,8.1,18,18c0,5-2,9.5-5.3,12.7c-3.3,3.3-7.8,5.3-12.7,5.3H332.3c-9.9,0-18-8.1-18-18
		C314.3,445.1,316.3,440.6,319.6,437.4z M319.6,515.6c3.3-3.3,7.8-5.3,12.7-5.3H711c9.9,0,18,8.1,18,18c0,5-2,9.5-5.3,12.7
		c-3.3,3.3-7.8,5.3-12.7,5.3H332.3c-9.9,0-18-8.1-18-18C314.3,523.4,316.3,518.9,319.6,515.6z M319.6,593.8
		c3.3-3.3,7.8-5.3,12.7-5.3H711c9.9,0,18,8,18,18c0,5-2,9.5-5.3,12.7c-3.3,3.2-7.8,5.3-12.7,5.3H332.3c-9.9,0-18-8.1-18-18
		C314.3,601.6,316.3,597.1,319.6,593.8z"/>
</g>
</svg>
