<?xml version="1.0" encoding="utf-8"?>
<!-- Generator: Adobe Illustrator 26.0.1, SVG Export Plug-In . SVG Version: 6.00 Build 0)  -->
<svg version="1.1" id="Layer_1" xmlns="http://www.w3.org/2000/svg" xmlns:xlink="http://www.w3.org/1999/xlink" x="0px" y="0px"
	 viewBox="0 0 1080 1080" style="enable-background:new 0 0 1080 1080;" xml:space="preserve">
<style type="text/css">
	.st0{fill:none;stroke:#00A99D;stroke-width:40;stroke-miterlimit:10;}
	.st1{fill:#00A99D;}
</style>
<path class="st0" d="M856.7,912.1h-605c-32.1,0-58.1-26-58.1-58.1V295.2c0-32.1,26-58.1,58.1-58.1h605c32.1,0,58.1,26,58.1,58.1V854
	C914.8,886.1,888.8,912.1,856.7,912.1z"/>
<path class="st0" d="M506.7,912.1h-255c-32.1,0-58.1-26-58.1-58.1V295.2c0-32.1,26-58.1,58.1-58.1h255c32.1,0,58.1,26,58.1,58.1V854
	C564.8,886.1,538.8,912.1,506.7,912.1z"/>
<path class="st1" d="M545.5,365.8H213c-10.7,0-19.4-8.7-19.4-19.4v-80c0-10.7,8.7-19.4,19.4-19.4h332.5c10.7,0,19.4,8.7,19.4,19.4
	v80C564.8,357.2,556.2,365.8,545.5,365.8z"/>
<path class="st1" d="M468,523.5H290.5c-10.7,0-19.4-8.7-19.4-19.4v-30.4c0-10.7,8.7-19.4,19.4-19.4H468c10.7,0,19.4,8.7,19.4,19.4
	v30.4C487.3,514.9,478.7,523.5,468,523.5z"/>
<path class="st1" d="M468,643.8H290.5c-10.7,0-19.4-8.7-19.4-19.4V594c0-10.7,8.7-19.4,19.4-19.4H468c10.7,0,19.4,8.7,19.4,19.4
	v30.4C487.3,635.1,478.7,643.8,468,643.8z"/>
<path class="st1" d="M468,764H290.5c-10.7,0-19.4-8.7-19.4-19.4v-30.4c0-10.7,8.7-19.4,19.4-19.4H468c10.7,0,19.4,8.7,19.4,19.4
	v30.4C487.3,755.3,478.7,764,468,764z"/>
</svg>
