<?xml version="1.0" encoding="utf-8"?>
<!-- Generator: Adobe Illustrator 26.0.1, SVG Export Plug-In . SVG Version: 6.00 Build 0)  -->
<svg version="1.1" id="Layer_1" xmlns="http://www.w3.org/2000/svg" xmlns:xlink="http://www.w3.org/1999/xlink" x="0px" y="0px"
	 viewBox="0 0 1080 1080" style="enable-background:new 0 0 1080 1080;" xml:space="preserve">
<style type="text/css">
	.st0{fill:#00A99D;}
	.st1{fill:none;stroke:#00A99D;stroke-width:20;stroke-miterlimit:10;}
</style>
<image style="overflow:visible;" width="413" height="342" xlink:href="F0DE3272.jpg"  transform="matrix(1 0 0 1 -520.5 158.625)">
</image>
<path class="st0" d="M826.8,427.2H529.2c-3.8,14.1-9.3,27.5-16.1,40h289.1L603,613.5c-13.1,9.6-30.6,9.6-43.7,0l-108.2-79.4
	c-12.6,8.2-26.2,14.9-40.6,19.8L487,610c-4.5,4.6-10,10.1-16.3,16.6c-17.2,17.6-40.9,42.3-70.5,73.3c-26.4,27.6-52.8,55.4-72.2,75.8
	V562.9c-13.8-1.6-27.2-4.8-40-9.2v249.7c0,26.2,21.3,47.5,47.5,47.5h491.3c26.2,0,47.5-21.3,47.5-47.5V474.7
	C874.3,448.5,853,427.2,826.8,427.2z M349.8,810.8c61.2-64.5,140.9-147.9,169.8-176.8l16.1,11.8c13.6,10,29.5,15,45.5,15
	c15.9,0,31.9-5,45.5-15l17.2-12.6c18.7,19.7,53.3,56.1,87.8,92.2c29.7,31,53.4,55.7,70.5,73.3c4.4,4.5,8.3,8.6,11.9,12.2H349.8z
	 M834.3,774.4c-37.4-38.3-105.4-109.7-158-165.1l158-116V774.4z"/>
<g>
	<path class="st0" d="M349.8,579.1c-110.8,0-201-90.2-201-201c0-110.8,90.2-201,201-201c110.8,0,201,90.2,201,201
		C550.8,489,460.6,579.1,349.8,579.1z M349.8,207.1c-94.3,0-171,76.7-171,171c0,94.3,76.7,171,171,171h0c94.3,0,171-76.7,171-171
		C520.8,283.8,444.1,207.1,349.8,207.1z"/>
</g>
<g>
	<path class="st1" d="M282.1,438L282.1,438c-16.5,0-30-13.4-30-30v0c0-16.5,13.4-30,30-30h0c16.5,0,30,13.4,30,30v0
		C312.1,424.6,298.7,438,282.1,438z"/>
	<path class="st1" d="M409.7,438L409.7,438c-16.5,0-30-13.4-30-30v0c0-16.5,13.4-30,30-30h0c16.5,0,30,13.4,30,30v0
		C439.6,424.6,426.2,438,409.7,438z"/>
	<path class="st1" d="M251.7,408v-70.5c0-44.6,42.1-80.8,94-80.8h0c51.9,0,94,36.2,94,80.8v66.2"/>
	<path class="st1" d="M373.9,489.4L373.9,489.4c36.3,0,65.7-25.3,65.7-56.5v-46.3"/>
	<circle class="st0" cx="375.2" cy="477.1" r="22.5"/>
</g>
</svg>
