<?xml version="1.0" encoding="utf-8"?>
<!-- Generator: Adobe Illustrator 26.0.1, SVG Export Plug-In . SVG Version: 6.00 Build 0)  -->
<svg version="1.1" id="Layer_1" xmlns="http://www.w3.org/2000/svg" xmlns:xlink="http://www.w3.org/1999/xlink" x="0px" y="0px"
	 viewBox="0 0 1080 1080" style="enable-background:new 0 0 1080 1080;" xml:space="preserve">
<style type="text/css">
	.st0{fill:#00A99D;}
</style>
<g>
	<path class="st0" d="M722.1,623.9c-16.8-16.9-35.8-30.8-56.4-41.7c-28.9,26.7-67.5,43.2-109.4,43.3h-0.1h-0.2
		c-42.2-0.1-81-16.7-110.1-43.7c-53.7,28.2-95.6,76.8-114.7,137.9c-7.2,22.8-10.8,46.4-10.8,70.6v43.6c0,9.7,7.9,17.6,17.6,17.6
		h435.3c9.7,0,17.6-7.9,17.6-17.6v-43.6c0-24.2-3.7-47.8-10.8-70.6C769.1,683.7,749,650.7,722.1,623.9z"/>
	<path class="st0" d="M422.3,554.6c-8.6-12.7-15.5-26.6-20.3-41.6c-11.1,2.6-22.6,3.9-34.2,3.9c-42.3,0-81-16.6-109.8-43.2
		c-74.6,39.5-125.6,117.7-125.6,207.9V725c0,9.7,7.9,17.6,17.6,17.6h139.4c1.9-11.5,4.8-22.8,8.1-33.7
		C318.2,643,362.5,588.4,422.3,554.6z"/>
	<path class="st0" d="M367.8,481.5c9.2,0,18.4-1.1,27.2-3c-0.5-4.8-0.9-9.7-0.9-14.6c0-26.5,6.4-52.2,18.2-74.8
		c0,0,7.2-12.4,8.8-14.6c16.9-25.6,40.2-45.3,67.2-57.5c-16.2-51.3-64.1-88.4-120.5-88.4c-69.9,0-126.5,56.6-126.5,126.5
		C241.3,424.7,297.9,481.5,367.8,481.5z"/>
	<path class="st0" d="M910.4,515c-16.9-16.9-36-30.9-56.5-41.6c-28.9,26.8-67.4,43.4-109.9,43.4c-11.6,0-23.1-1.2-34.2-3.9
		c-4.8,15.2-11.6,29.3-20.5,42.2c21.2,11.8,40.6,26.6,57.9,43.9c30.7,30.7,53.8,68.8,66.9,110.1c3.4,11.1,6,22.2,7.9,33.5h139.8
		c9.7,0,17.6-7.9,17.6-17.6v-43.6C979.4,618.6,954.9,559.5,910.4,515z"/>
	<path class="st0" d="M693.2,378.8c1.1,1.6,2.5,4.1,3.7,6.2l1.2,1.8l0.4,1.1c12.7,23.6,19.1,49.2,19.1,76.1c0,4.9-0.2,9.9-0.7,14.6
		c8.8,1.9,18,3,27.2,3c69.9,0,126.5-56.8,126.5-126.5c0-69.9-56.6-126.5-126.5-126.5c-56.5,0-104.5,37.2-120.5,88.6
		C651.9,330.3,676.4,351.6,693.2,378.8z"/>
	
		<ellipse transform="matrix(0.9732 -0.2298 0.2298 0.9732 -91.6898 140.1084)" class="st0" cx="555.8" cy="463.8" rx="126.5" ry="126.5"/>
</g>
</svg>
