<?xml version="1.0" encoding="utf-8"?>
<!-- Generator: Adobe Illustrator 26.0.1, SVG Export Plug-In . SVG Version: 6.00 Build 0)  -->
<svg version="1.1" id="Layer_1" xmlns="http://www.w3.org/2000/svg" xmlns:xlink="http://www.w3.org/1999/xlink" x="0px" y="0px"
	 viewBox="0 0 1080 1080" style="enable-background:new 0 0 1080 1080;" xml:space="preserve">
<style type="text/css">
	.st0{fill:#00A99D;}
	.st1{fill:#FFFFFF;}
</style>
<path class="st0" d="M907.3,220.1H172.5c-26.8,0-48.5,21.7-48.5,48.5v478c0,26.8,21.7,48.5,48.5,48.5h469.6
	c12.8,0,25.2,5.1,34.3,14.2l99.6,99.6c30.6,30.6,82.8,8.9,82.8-34.3v-31c0-26.8,21.7-48.5,48.5-48.5l0,0c26.8,0,48.5-21.7,48.5-48.5
	v-478C955.9,241.8,934.1,220.1,907.3,220.1z"/>
<g>
	<g>
		<path class="st1" d="M308.9,672.1V500.7l100.4-163.5H500l-80.2,153.1H500V672H308.9V672.1z M540,672.1V500.7l102-163.5h88.3
			l-78.6,153.1h78.6V672H540V672.1z"/>
	</g>
</g>
</svg>
