<?xml version="1.0" encoding="utf-8"?>
<!-- Generator: Adobe Illustrator 26.0.1, SVG Export Plug-In . SVG Version: 6.00 Build 0)  -->
<svg version="1.1" id="Layer_1" xmlns="http://www.w3.org/2000/svg" xmlns:xlink="http://www.w3.org/1999/xlink" x="0px" y="0px"
	 viewBox="0 0 1080 1080" style="enable-background:new 0 0 1080 1080;" xml:space="preserve">
<style type="text/css">
	.st0{fill:#00A99D;}
	.st1{fill:#216AB4;}
</style>
<path class="st0" d="M468.9,497.6H210c-15.9,0-28.8-12.9-28.8-28.8V210c0-15.9,12.9-28.8,28.8-28.8h258.8
	c15.9,0,28.8,12.9,28.8,28.8v258.8C497.6,484.7,484.7,497.6,468.9,497.6z"/>
<path class="st0" d="M870,497.6H611.1c-15.9,0-28.8-12.9-28.8-28.8V210c0-15.9,12.9-28.8,28.8-28.8H870c15.9,0,28.8,12.9,28.8,28.8
	v258.8C898.8,484.7,885.9,497.6,870,497.6z"/>
<path class="st0" d="M468.9,898.8H210c-15.9,0-28.8-12.9-28.8-28.8V611.1c0-15.9,12.9-28.8,28.8-28.8h258.8
	c15.9,0,28.8,12.9,28.8,28.8V870C497.6,885.9,484.7,898.8,468.9,898.8z"/>
<path class="st1" d="M758.4,898.8h-35.6c-15.9,0-28.8-12.9-28.8-28.8V611.1c0-15.9,12.9-28.8,28.8-28.8h35.6
	c15.9,0,28.8,12.9,28.8,28.8V870C787.1,885.9,774.3,898.8,758.4,898.8z"/>
<path class="st1" d="M898.8,722.8v35.6c0,15.9-12.9,28.8-28.8,28.8H611.1c-15.9,0-28.8-12.9-28.8-28.8v-35.6
	c0-15.9,12.9-28.8,28.8-28.8H870C885.9,694,898.8,706.9,898.8,722.8z"/>
</svg>
